<svg width="60" height="61" viewBox="0 0 60 61" fill="none" xmlns="http://www.w3.org/2000/svg">
<path d="M41.9445 33.8427C41.4371 36.0138 40.366 37.9643 38.8962 39.527L50.8025 51.5785L55.1346 47.1936L41.9445 33.8427Z" fill="#52FF00"/>
<path d="M37.755 1.605L31.8373 -8.36007e-07L26.8503 18.8386L22.3479 1.83098L16.43 3.43599L21.2945 21.8114L9.17819 9.54752L4.84604 13.9325L18.1361 27.3846L1.58543 22.8958L-0.000243574 28.8857L18.0835 33.7903C17.8764 32.8864 17.7669 31.9446 17.7669 30.9769C17.7669 24.1271 23.2528 18.5743 30.0201 18.5743C36.7874 18.5743 42.2733 24.1271 42.2733 30.9769C42.2733 31.9383 42.1651 32.8744 41.9606 33.7729L58.3954 38.2302L59.981 32.2403L41.8254 27.3162L58.3772 22.8271L56.7914 16.8372L38.6366 21.761L50.7529 9.49717L46.4207 5.11222L33.315 18.3777L37.755 1.605Z" fill="#52FF00"/>
<path d="M38.7763 39.6531C37.2888 41.1909 35.409 42.3385 33.301 42.9298L37.6335 59.2958L43.5513 57.6907L38.7763 39.6531Z" fill="#52FF00"/>
<path d="M33.0799 42.9897C32.1019 43.2442 31.0768 43.3794 30.0204 43.3794C28.8886 43.3794 27.7926 43.2241 26.7521 42.9333L22.4158 59.3142L28.3335 60.9191L33.0799 42.9897Z" fill="#52FF00"/>
<path d="M26.5431 42.8728C24.4673 42.2521 22.6209 41.0899 21.1638 39.5477L9.22827 51.6287L13.5604 56.0137L26.5431 42.8728Z" fill="#52FF00"/>
<path d="M21.0637 39.4409C19.6316 37.889 18.5885 35.9646 18.0919 33.8269L1.60352 38.2989L3.18918 44.2887L21.0637 39.4409Z" fill="#52FF00"/>
</svg>
